<svg width="100" height="113" viewBox="0 0 100 113" fill="none" xmlns="http://www.w3.org/2000/svg">
<g clip-path="url(#clip0_12_706)">
<path d="M46.2277 3.52823C46.2277 1.57976 48.0357 0 49.7991 0C51.9643 0 53.5714 1.57976 53.5714 3.52823V7.23066C71.6295 9.00139 85.7143 24.036 85.7143 42.3387V48.7557C85.7143 58.3921 89.5982 67.6317 96.4955 74.4676L97.0982 75.063C98.9509 76.8933 100 79.1866 100 81.9651C100 87.3677 95.5804 91.7339 90.1116 91.7339H9.88393C4.42634 91.7339 0 87.3677 0 81.9651C0 79.1866 1.04152 76.8933 2.89509 75.063L3.50893 74.4676C10.4085 67.6317 14.2857 58.3921 14.2857 48.7557V42.3387C14.2857 24.036 28.3705 9.00139 46.4286 7.23066L46.2277 3.52823ZM49.7991 14.1129C34.2188 14.1129 21.2277 26.7484 21.2277 42.3387V48.7557C21.2277 60.2665 16.7991 71.3143 8.56027 79.4512L7.94643 80.0466C7.4308 80.5538 6.94196 81.2595 6.94196 81.9651C6.94196 83.4646 8.37054 84.6774 9.88393 84.6774H90.1116C91.6295 84.6774 92.8571 83.4646 92.8571 81.9651C92.8571 81.2595 92.567 80.5538 92.0536 80.0466L91.4509 79.4512C83.192 71.3143 78.5714 60.2665 78.5714 48.7557V42.3387C78.5714 26.7484 65.7813 14.1129 49.7991 14.1129ZM49.7991 105.847C53.1027 105.847 55.7589 103.884 56.7411 101.15C57.3884 99.2975 59.442 98.1508 61.2946 98.9888C63.1473 99.6503 64.1295 101.657 63.4821 103.487C61.5179 108.978 56.2277 112.903 49.7991 112.903C43.7723 112.903 38.4821 108.978 36.5179 103.487C35.8705 101.657 36.8527 99.6503 38.7054 98.9888C40.558 98.1508 42.6116 99.2975 43.2589 101.15C44.2411 103.884 46.8973 105.847 49.7991 105.847Z" fill="#110C1A"/>
</g>
<defs>
<clipPath id="clip0_12_706">
<rect width="100" height="112.903" fill="white"/>
</clipPath>
</defs>
</svg>
