<svg width="100" height="100" viewBox="0 0 100 100" fill="none" xmlns="http://www.w3.org/2000/svg">
<path fill-rule="evenodd" clip-rule="evenodd" d="M10 27.5V52.5H35V27.5H10ZM7.5 20C4.73858 20 2.5 22.2386 2.5 25V55C2.5 57.7614 4.73858 60 7.5 60H37.5C40.2614 60 42.5 57.7614 42.5 55V25C42.5 22.2386 40.2614 20 37.5 20H7.5Z" fill="#006E6E"/>
<path fill-rule="evenodd" clip-rule="evenodd" d="M10 60V85H35V60H10ZM7.5 52.5C4.73858 52.5 2.5 54.7386 2.5 57.5V87.5C2.5 90.2614 4.73858 92.5 7.5 92.5H37.5C40.2614 92.5 42.5 90.2614 42.5 87.5V57.5C42.5 54.7386 40.2614 52.5 37.5 52.5H7.5Z" fill="#006E6E"/>
<path fill-rule="evenodd" clip-rule="evenodd" d="M42.5 60V85H67.5V60H42.5ZM40 52.5C37.2386 52.5 35 54.7386 35 57.5V87.5C35 90.2614 37.2386 92.5 40 92.5H70C72.7614 92.5 75 90.2614 75 87.5V57.5C75 54.7386 72.7614 52.5 70 52.5H40Z" fill="#006E6E"/>
<path fill-rule="evenodd" clip-rule="evenodd" d="M62.5 12.5V37.5H87.5V12.5H62.5ZM60 5C57.2386 5 55 7.23858 55 10V40C55 42.7614 57.2386 45 60 45H90C92.7614 45 95 42.7614 95 40V10C95 7.23858 92.7614 5 90 5H60Z" fill="#006E6E"/>
</svg>
