<svg width="20" height="20" viewBox="0 0 100 100" fill="none" xmlns="http://www.w3.org/2000/svg">
<path d="M50 0C22.3828 0 0 22.3828 0 50C0 77.6172 22.3828 100 50 100C77.6172 100 100 77.6172 100 50C100 22.3828 77.6172 0 50 0ZM50 93.75C25.8789 93.75 6.25 74.1211 6.25 50C6.25 25.8789 25.8789 6.25 50 6.25C74.1211 6.25 93.75 25.8789 93.75 50C93.75 74.1211 74.1211 93.75 50 93.75ZM70.7812 25.7422C69.475 24.6191 67.5 24.7777 66.377 26.084L50 45.1953L33.6211 26.0859C32.5 24.7852 30.5273 24.6484 29.2188 25.7422C27.9064 26.8652 27.7539 28.8438 28.8801 30.1484L45.8789 50L28.8711 69.8438C27.7449 71.15 27.8977 73.127 29.2098 74.25C29.8047 74.7656 30.5273 75 31.25 75C32.1289 75 33.0047 74.6277 33.6211 73.9074L50 54.8047L66.3789 73.9141C66.9922 74.6289 67.8711 75 68.75 75C69.4703 75 70.1936 74.7498 70.7832 74.2492C72.0955 73.1262 72.248 71.1477 71.1219 69.843L54.1211 50L71.1289 30.1562C72.2461 28.8477 72.0898 26.875 70.7812 25.7422Z" fill="#00DD79"/>
</svg>
