<svg width="20" height="20" viewBox="0 0 100 100" fill="none" xmlns="http://www.w3.org/2000/svg">
<path fill-rule="evenodd" clip-rule="evenodd" d="M68.7574 46.25C70.8285 46.25 72.5074 47.9289 72.5074 50C72.5074 53.1247 71.229 55.6268 69.2394 57.449C67.3702 59.161 64.9939 60.1741 62.7728 60.8197C58.8495 61.9601 54.2915 62.2412 51.2752 62.4273C50.9121 62.4497 50.5714 62.4707 50.2568 62.4917L50.1322 62.5H50.0073C48.4712 62.5 46.7908 62.4243 45.2115 62.3531C44.4629 62.3193 43.7369 62.2866 43.0598 62.2634C40.8059 62.1864 38.8874 62.2014 37.3161 62.4529C35.7315 62.7065 34.9337 63.1362 34.5313 63.5322C34.2266 63.832 33.7574 64.4887 33.7573 66.2502C33.7572 68.3212 32.0782 70.0001 30.0072 70C27.9361 69.9999 26.2572 68.3209 26.2573 66.2498C26.2575 63.0113 27.1937 60.2305 29.2707 58.1865C31.25 56.2388 33.8101 55.4185 36.1309 55.0471C38.4649 54.6736 40.9989 54.6886 43.316 54.7678C44.1791 54.7973 44.9988 54.8346 45.7905 54.8706C47.2168 54.9355 48.552 54.9963 49.8856 54.9998C50.1899 54.9798 50.5011 54.96 50.8181 54.9399C53.9397 54.7415 57.6171 54.5079 60.6794 53.6178C62.3647 53.1279 63.5039 52.5318 64.1738 51.9182C64.7233 51.4149 65.0074 50.8753 65.0074 50C65.0074 47.9289 66.6863 46.25 68.7574 46.25Z" fill="#00DD79"/>
<path fill-rule="evenodd" clip-rule="evenodd" d="M28.75 28.75C30.8211 28.75 32.5 30.4289 32.5 32.5V67.5C32.5 69.5711 30.8211 71.25 28.75 71.25C26.6789 71.25 25 69.5711 25 67.5V32.5C25 30.4289 26.6789 28.75 28.75 28.75Z" fill="#00DD79"/>
<path fill-rule="evenodd" clip-rule="evenodd" d="M28.75 27.5C33.5825 27.5 37.5 23.5825 37.5 18.75C37.5 13.9175 33.5825 10 28.75 10C23.9175 10 20 13.9175 20 18.75C20 23.5825 23.9175 27.5 28.75 27.5ZM28.75 35C37.7246 35 45 27.7246 45 18.75C45 9.77537 37.7246 2.5 28.75 2.5C19.7754 2.5 12.5 9.77537 12.5 18.75C12.5 27.7246 19.7754 35 28.75 35Z" fill="#00DD79"/>
<path fill-rule="evenodd" clip-rule="evenodd" d="M68.75 45C73.5825 45 77.5 41.0825 77.5 36.25C77.5 31.4175 73.5825 27.5 68.75 27.5C63.9175 27.5 60 31.4175 60 36.25C60 41.0825 63.9175 45 68.75 45ZM68.75 52.5C77.7246 52.5 85 45.2246 85 36.25C85 27.2754 77.7246 20 68.75 20C59.7754 20 52.5 27.2754 52.5 36.25C52.5 45.2246 59.7754 52.5 68.75 52.5Z" fill="#00DD79"/>
<path fill-rule="evenodd" clip-rule="evenodd" d="M28.75 90C33.5825 90 37.5 86.0825 37.5 81.25C37.5 76.4175 33.5825 72.5 28.75 72.5C23.9175 72.5 20 76.4175 20 81.25C20 86.0825 23.9175 90 28.75 90ZM28.75 97.5C37.7246 97.5 45 90.2246 45 81.25C45 72.2754 37.7246 65 28.75 65C19.7754 65 12.5 72.2754 12.5 81.25C12.5 90.2246 19.7754 97.5 28.75 97.5Z" fill="#00DD79"/>
</svg>
