<svg width="26" height="20" viewBox="0 0 126 100" fill="none" xmlns="http://www.w3.org/2000/svg">
<mask id="path-1-inside-1_76_296" fill="white">
<path fill-rule="evenodd" clip-rule="evenodd" d="M43.9228 50C58.0191 50 69.3 38.8086 69.3 25C69.3 11.1934 58.0191 0 43.9228 0C30.1809 0 18.7228 11.1934 18.7228 25C18.7228 38.8086 30.1809 50 43.9228 50ZM43.9228 43.75C33.4884 43.75 25.0228 35.3516 25.0228 25C25.0228 14.6445 33.4884 6.25 43.9228 6.25C54.5344 6.25 62.8228 14.6445 62.8228 25C62.8228 35.3516 54.5344 43.75 43.9228 43.75ZM88.2 93.9844C88.2 74.8633 72.5878 59.375 53.3138 59.375H34.8862C15.6181 59.375 0 74.8633 0 93.9844C0 97.3047 2.71688 100 6.06572 100H82.1362C85.4831 100 88.2 97.3047 88.2 93.9844ZM55.2229 65.6855C54.6131 65.644 53.9634 65.625 53.3138 65.625H35.1682C32.3102 65.269 29.4105 65.8401 26.8992 66.6983C15.1482 70.051 6.40454 80.8902 6.3 93.75H81.7228C81.801 81.6497 74.0583 71.3593 63.0612 67.3705C62.4703 66.041 58.5476 65.4887 55.2229 65.6855ZM89.0662 56.0938C89.5978 56.3477 90.2475 56.2891 90.72 55.9375L107.1 43.75H116.55C121.767 43.75 126 39.5508 126 34.375V9.375C126 4.19727 121.767 0 116.55 0H85.05C79.8328 0 75.6 4.19727 75.6 9.375V34.375C75.6 39.5508 79.8328 43.75 85.05 43.75H88.2V54.6875C88.2 55.2734 88.5347 55.8203 89.0662 56.0938ZM119.7 34.375C119.7 36.0938 118.283 37.5 116.55 37.5H104.993L94.5 45.3125V37.5H85.05C83.3175 37.5 81.9 36.0938 81.9 34.375V9.375C81.9 7.64844 83.3175 6.25 85.05 6.25H116.55C118.283 6.25 119.7 7.64844 119.7 9.375V34.375Z"/>
</mask>
<path fill-rule="evenodd" clip-rule="evenodd" d="M43.9228 50C58.0191 50 69.3 38.8086 69.3 25C69.3 11.1934 58.0191 0 43.9228 0C30.1809 0 18.7228 11.1934 18.7228 25C18.7228 38.8086 30.1809 50 43.9228 50ZM43.9228 43.75C33.4884 43.75 25.0228 35.3516 25.0228 25C25.0228 14.6445 33.4884 6.25 43.9228 6.25C54.5344 6.25 62.8228 14.6445 62.8228 25C62.8228 35.3516 54.5344 43.75 43.9228 43.75ZM88.2 93.9844C88.2 74.8633 72.5878 59.375 53.3138 59.375H34.8862C15.6181 59.375 0 74.8633 0 93.9844C0 97.3047 2.71688 100 6.06572 100H82.1362C85.4831 100 88.2 97.3047 88.2 93.9844ZM55.2229 65.6855C54.6131 65.644 53.9634 65.625 53.3138 65.625H35.1682C32.3102 65.269 29.4105 65.8401 26.8992 66.6983C15.1482 70.051 6.40454 80.8902 6.3 93.75H81.7228C81.801 81.6497 74.0583 71.3593 63.0612 67.3705C62.4703 66.041 58.5476 65.4887 55.2229 65.6855ZM89.0662 56.0938C89.5978 56.3477 90.2475 56.2891 90.72 55.9375L107.1 43.75H116.55C121.767 43.75 126 39.5508 126 34.375V9.375C126 4.19727 121.767 0 116.55 0H85.05C79.8328 0 75.6 4.19727 75.6 9.375V34.375C75.6 39.5508 79.8328 43.75 85.05 43.75H88.2V54.6875C88.2 55.2734 88.5347 55.8203 89.0662 56.0938ZM119.7 34.375C119.7 36.0938 118.283 37.5 116.55 37.5H104.993L94.5 45.3125V37.5H85.05C83.3175 37.5 81.9 36.0938 81.9 34.375V9.375C81.9 7.64844 83.3175 6.25 85.05 6.25H116.55C118.283 6.25 119.7 7.64844 119.7 9.375V34.375Z" fill="#110C1A"/>
<path d="M56.5228 67.9999L62.8228 68L62.8228 67L56.5228 66.9999L56.5228 67.9999ZM55.2229 65.6855L55.1549 66.6832L55.2184 66.6875L55.282 66.6838L55.2229 65.6855ZM35.1682 65.625L35.0446 66.6173L35.1062 66.625H35.1682V65.625ZM26.8992 66.6983L27.1735 67.6599L27.1982 67.6529L27.2225 67.6446L26.8992 66.6983ZM6.3 93.75L5.30003 93.7419L5.29184 94.75H6.3V93.75ZM81.7228 93.75V94.75H82.7164L82.7228 93.7565L81.7228 93.75ZM63.0612 67.3705L62.1474 67.7766L62.3202 68.1654L62.7202 68.3105L63.0612 67.3705ZM90.72 55.9375L91.3169 56.7398L91.3169 56.7398L90.72 55.9375ZM89.0662 56.0938L88.6088 56.983L88.6219 56.9897L88.6352 56.9961L89.0662 56.0938ZM107.1 43.75V42.75H106.769L106.503 42.9477L107.1 43.75ZM88.2 43.75H89.2V42.75H88.2V43.75ZM104.993 37.5V36.5H104.662L104.396 36.6979L104.993 37.5ZM94.5 45.3125H93.5V47.3037L95.0972 46.1146L94.5 45.3125ZM94.5 37.5H95.5V36.5H94.5V37.5ZM68.3 25C68.3 38.2443 57.4789 49 43.9228 49V51C58.5592 51 70.3 39.3729 70.3 25H68.3ZM43.9228 1C57.4788 1 68.3 11.7576 68.3 25H70.3C70.3 10.6291 58.5593 -1 43.9228 -1V1ZM19.7228 25C19.7228 11.7576 30.7212 1 43.9228 1V-1C29.6407 -1 17.7228 10.6291 17.7228 25H19.7228ZM43.9228 49C30.7211 49 19.7228 38.2443 19.7228 25H17.7228C17.7228 39.3729 29.6408 51 43.9228 51V49ZM24.0228 25C24.0228 35.9113 32.9437 44.75 43.9228 44.75V42.75C34.0332 42.75 26.0228 34.7918 26.0228 25H24.0228ZM43.9228 5.25C32.9438 5.25 24.0228 14.0846 24.0228 25H26.0228C26.0228 15.2044 34.0331 7.25 43.9228 7.25V5.25ZM63.8228 25C63.8228 14.0907 55.0851 5.25 43.9228 5.25V7.25C53.9836 7.25 61.8228 15.1983 61.8228 25H63.8228ZM43.9228 44.75C55.0853 44.75 63.8228 35.9052 63.8228 25H61.8228C61.8228 34.7979 53.9835 42.75 43.9228 42.75V44.75ZM53.3138 60.375C72.0431 60.375 87.2 75.4231 87.2 93.9844H89.2C89.2 74.3035 73.1326 58.375 53.3138 58.375V60.375ZM34.8862 60.375H53.3138V58.375H34.8862V60.375ZM1 93.9844C1 75.4232 16.1627 60.375 34.8862 60.375V58.375C15.0734 58.375 -1 74.3034 -1 93.9844H1ZM6.06572 99C3.26142 99 1 96.7447 1 93.9844H-1C-1 97.8647 2.17233 101 6.06572 101V99ZM82.1362 99H6.06572V101H82.1362V99ZM87.2 93.9844C87.2 96.7449 84.9384 99 82.1362 99V101C86.0279 101 89.2 97.8645 89.2 93.9844H87.2ZM55.2909 64.6878C54.6547 64.6445 53.982 64.625 53.3138 64.625V66.625C53.9449 66.625 54.5715 66.6435 55.1549 66.6832L55.2909 64.6878ZM53.3138 64.625H35.1682V66.625H53.3138V64.625ZM27.2225 67.6446C29.6519 66.8144 32.3907 66.2868 35.0446 66.6173L35.2918 64.6327C32.2298 64.2513 29.1691 64.8659 26.5758 65.752L27.2225 67.6446ZM26.6248 65.7367C14.4608 69.2072 5.40829 80.4245 5.30003 93.7419L7.29997 93.7581C7.40079 81.3559 15.8355 70.8948 27.1735 67.6599L26.6248 65.7367ZM6.3 94.75H81.7228V92.75H6.3V94.75ZM82.7228 93.7565C82.8039 81.2074 74.7725 70.5545 63.4022 66.4304L62.7202 68.3105C73.3441 72.164 80.7981 82.0921 80.7228 93.7435L82.7228 93.7565ZM55.282 66.6838C56.8779 66.5893 58.6055 66.6765 59.9804 66.938C60.6704 67.0693 61.2311 67.237 61.6303 67.4241C62.0621 67.6265 62.1476 67.7771 62.1474 67.7766L63.975 66.9643C63.6794 66.2991 63.053 65.8821 62.4791 65.6132C61.8728 65.329 61.1341 65.1216 60.3541 64.9732C58.7887 64.6755 56.8926 64.5849 55.1638 64.6872L55.282 66.6838ZM90.1231 55.1352C89.9532 55.2616 89.6998 55.2882 89.4973 55.1914L88.6352 56.9961C89.4958 57.4072 90.5418 57.3165 91.3169 56.7398L90.1231 55.1352ZM106.503 42.9477L90.1231 55.1352L91.3169 56.7398L107.697 44.5523L106.503 42.9477ZM116.55 42.75H107.1V44.75H116.55V42.75ZM125 34.375C125 38.991 121.222 42.75 116.55 42.75V44.75C122.312 44.75 127 40.1106 127 34.375H125ZM125 9.375V34.375H127V9.375H125ZM116.55 1C121.223 1 125 4.75718 125 9.375H127C127 3.63735 122.312 -1 116.55 -1V1ZM85.05 1H116.55V-1H85.05V1ZM76.6 9.375C76.6 4.75718 80.3774 1 85.05 1V-1C79.2882 -1 74.6 3.63735 74.6 9.375H76.6ZM76.6 34.375V9.375H74.6V34.375H76.6ZM85.05 42.75C80.3776 42.75 76.6 38.991 76.6 34.375H74.6C74.6 40.1106 79.2881 44.75 85.05 44.75V42.75ZM88.2 42.75H85.05V44.75H88.2V42.75ZM89.2 54.6875V43.75H87.2V54.6875H89.2ZM89.5237 55.2045C89.3205 55.1 89.2 54.8934 89.2 54.6875H87.2C87.2 55.6534 87.7489 56.5406 88.6088 56.983L89.5237 55.2045ZM116.55 38.5C118.827 38.5 120.7 36.6535 120.7 34.375H118.7C118.7 35.534 117.738 36.5 116.55 36.5V38.5ZM104.993 38.5H116.55V36.5H104.993V38.5ZM95.0972 46.1146L105.591 38.3021L104.396 36.6979L93.9028 44.5104L95.0972 46.1146ZM93.5 37.5V45.3125H95.5V37.5H93.5ZM85.05 38.5H94.5V36.5H85.05V38.5ZM80.9 34.375C80.9 36.6535 82.7727 38.5 85.05 38.5V36.5C83.8623 36.5 82.9 35.534 82.9 34.375H80.9ZM80.9 9.375V34.375H82.9V9.375H80.9ZM85.05 5.25C82.7744 5.25 80.9 7.08704 80.9 9.375H82.9C82.9 8.20984 83.8606 7.25 85.05 7.25V5.25ZM116.55 5.25H85.05V7.25H116.55V5.25ZM120.7 9.375C120.7 7.08704 118.826 5.25 116.55 5.25V7.25C117.739 7.25 118.7 8.20984 118.7 9.375H120.7ZM120.7 34.375V9.375H118.7V34.375H120.7Z" fill="#110C1A" mask="url(#path-1-inside-1_76_296)"/>
</svg>
