<svg width="100" height="117" viewBox="0 0 100 117" fill="none" xmlns="http://www.w3.org/2000/svg">
<path d="M75 58.0645C75 52.0539 79.7991 47.1774 85.7143 47.1774C91.6295 47.1774 96.4286 52.0539 96.4286 58.0645C96.4286 64.0751 91.6295 68.9516 85.7143 68.9516C79.7991 68.9516 75 64.0751 75 58.0645ZM39.2857 58.0645C39.2857 52.0539 44.0848 47.1774 50 47.1774C55.9152 47.1774 60.7143 52.0539 60.7143 58.0645C60.7143 64.0751 55.9152 68.9516 50 68.9516C44.0848 68.9516 39.2857 64.0751 39.2857 58.0645ZM25 58.0645C25 64.0751 20.2031 68.9516 14.2857 68.9516C8.3683 68.9516 3.57143 64.0751 3.57143 58.0645C3.57143 52.0539 8.3683 47.1774 14.2857 47.1774C20.2031 47.1774 25 52.0539 25 58.0645Z" fill="black"/>
</svg>
