<svg width="100" height="100" viewBox="0 0 100 100" fill="none" xmlns="http://www.w3.org/2000/svg">
<path d="M0 13.9707C0 9.70703 3.45703 6.25 7.7207 6.25H92.2852C96.543 6.25 100 9.70703 100 13.9707C100 15.7676 99.375 17.5078 98.2227 18.8926L62.5 62.0703V87.1289C62.5 90.7813 59.5313 93.75 55.8789 93.75C54.4141 93.75 52.9883 93.2617 51.8164 92.3633L39.9219 83.0859C38.3984 81.9141 37.5 80.0977 37.5 78.1641V62.0703L1.77266 18.8926C0.626953 17.5078 0 15.7676 0 13.9707ZM7.7207 12.5C6.9082 12.5 6.25 13.1582 6.25 13.9707C6.25 14.3125 6.36914 14.6445 6.58789 14.9082L43.0273 58.9453C43.4961 59.5117 43.75 60.2148 43.75 60.9375V78.1641L55.4883 87.4219C55.7227 87.4805 55.8008 87.5 55.8789 87.5C56.0938 87.5 56.25 87.3438 56.25 87.1289V60.9375C56.25 60.2148 56.5039 59.5117 56.9727 58.9453L93.418 14.9082C93.6328 14.6445 93.75 14.3125 93.75 13.9707C93.75 13.1582 93.0859 12.5 92.2852 12.5H7.7207Z" fill="#110C1A"/>
</svg>
