<svg width="100" height="102" viewBox="0 0 100 102" fill="none" xmlns="http://www.w3.org/2000/svg">
<g clip-path="url(#clip0_12_666)">
<path d="M31.25 50.7042C31.25 40.0286 39.4727 31.6901 50 31.6901C60.3516 31.6901 68.75 40.0286 68.75 50.7042C68.75 61.2016 60.3516 69.7183 50 69.7183C39.4727 69.7183 31.25 61.2016 31.25 50.7042ZM50 41.1972C44.8243 41.1972 40.625 45.4555 40.625 50.7042C40.625 55.9529 44.8243 60.2113 50 60.2113C55.1758 60.2113 59.375 55.9529 59.375 50.7042C59.375 45.4555 55.1758 41.1972 50 41.1972ZM57.2461 5.9419e-05C61.5821 5.9419e-05 65.3516 3.00858 66.3672 7.27685L67.8907 13.708C69.5508 14.5299 71.1328 15.4628 72.6368 16.4947L78.9063 14.623C83.0664 13.3812 87.5196 15.1855 89.6875 18.9883L96.9336 31.7099C99.0821 35.5128 98.3985 40.3257 95.2735 43.3561L90.5274 47.7531C90.586 48.8424 90.625 49.7733 90.625 50.7042C90.625 51.6351 90.586 52.566 90.5274 53.4771L95.2735 58.0524C98.3985 61.0827 99.0821 65.8957 96.9336 69.6985L89.6875 82.4142C87.5196 86.217 83.0664 88.0194 78.9063 86.7914L72.6368 84.9098C71.1328 85.9397 69.5508 86.8706 67.8907 87.7025L66.3672 94.1395C65.3516 98.3979 61.5821 101.408 57.2461 101.408H42.7539C38.418 101.408 34.6485 98.3979 33.6328 94.1395L32.1094 87.7025C30.4492 86.8706 28.8672 85.9397 27.3633 84.9098L20.918 86.7914C16.9395 88.0194 12.4883 86.217 10.3223 82.4142L3.0762 69.6985C0.910185 65.8957 1.59534 61.0827 4.73245 58.0524L9.46683 53.4771C9.40628 52.566 9.37503 51.6351 9.37503 50.526C9.37503 49.7733 9.40628 48.8424 9.46683 47.7531L4.73245 43.3561C1.59515 40.3257 0.910185 35.5128 3.0762 31.7099L10.3223 18.9883C12.4883 15.1855 16.9395 13.3812 20.918 14.623L27.3633 16.4947C28.8672 15.4628 30.4492 14.5299 32.1094 13.708L33.6328 7.27685C34.6485 3.0066 38.418 0 42.7539 0L57.2461 5.9419e-05ZM40.1368 20.5194L37.9493 21.4503C35.4688 22.5 33.1641 23.8666 31.0743 25.4908L29.1797 26.9564L18.4414 23.7478L11.1934 36.4635L19.2989 44.287L19 46.6637C18.836 47.9908 18.75 49.3376 18.75 50.7042C18.75 52.0709 18.836 53.4177 19 54.7447L19.2989 57.1215L11.1953 64.945L18.4414 77.6606L29.1797 74.452L31.0743 75.9177C33.1641 77.5418 35.4688 78.9084 37.9493 79.9582L40.1368 80.8891L42.7539 91.9014H57.2461L59.8633 80.8891L62.0508 79.9582C64.5313 78.9084 66.836 77.5418 68.9258 75.9177L70.8203 74.452L81.5625 77.6606L88.8086 64.945L80.7032 57.1215L80.9961 54.7447C81.1719 53.4177 81.25 52.0709 81.25 50.7042C81.25 49.3376 81.1719 47.9908 80.9961 46.6637L80.7032 44.287L88.8086 36.4635L81.5625 23.7478L70.8203 26.9564L68.9258 25.4908C66.836 23.8666 64.5313 22.5 62.0508 21.4503L59.8633 20.5194L57.2461 9.50704H42.7539L40.1368 20.5194Z" fill="#110C1A"/>
</g>
<defs>
<clipPath id="clip0_12_666">
<rect width="100" height="101.408" fill="white"/>
</clipPath>
</defs>
</svg>
