<svg width="100" height="100" viewBox="0 0 100 100" fill="none" xmlns="http://www.w3.org/2000/svg">
<path d="M31.4776 20.7955H43.6367V61.3636C43.6367 65.1136 42.7939 68.3712 41.1083 71.1364C39.4416 73.9015 37.1215 76.0322 34.148 77.5284C31.1746 79.0246 27.7181 79.7727 23.7787 79.7727C20.2749 79.7727 17.0931 79.1572 14.2333 77.9261C11.3924 76.6761 9.13858 74.7822 7.47191 72.2443C5.80524 69.6875 4.98138 66.4773 5.00032 62.6136H17.2446C17.2825 64.1477 17.595 65.464 18.1821 66.5625C18.7882 67.642 19.6121 68.4754 20.6537 69.0625C21.7143 69.6307 22.9643 69.9148 24.4037 69.9148C25.9189 69.9148 27.1973 69.5928 28.239 68.9489C29.2996 68.286 30.1045 67.3201 30.6537 66.0511C31.203 64.7822 31.4776 63.2197 31.4776 61.3636V20.7955Z" fill="#110C1A"/>
<path d="M85.3696 37.5284C85.1424 35.2367 84.167 33.4564 82.4435 32.1875C80.72 30.9186 78.381 30.2841 75.4265 30.2841C73.4189 30.2841 71.7238 30.5682 70.3412 31.1364C68.9587 31.6856 67.898 32.4527 67.1594 33.4375C66.4397 34.4223 66.0799 35.5398 66.0799 36.7898C66.042 37.8314 66.2598 38.7405 66.7333 39.517C67.2257 40.2936 67.898 40.9659 68.7503 41.5341C69.6026 42.0833 70.5874 42.5663 71.7049 42.983C72.8223 43.3807 74.0155 43.7216 75.2844 44.0057L80.5117 45.2557C83.0496 45.8239 85.3791 46.5814 87.5003 47.5284C89.6215 48.4754 91.4586 49.6402 93.0117 51.0227C94.5647 52.4053 95.7674 54.0341 96.6196 55.9091C97.4908 57.7841 97.9359 59.9337 97.9549 62.358C97.9359 65.9186 97.0268 69.0057 95.2276 71.6193C93.4473 74.214 90.8715 76.2311 87.5003 77.6705C84.148 79.0909 80.1045 79.8011 75.3696 79.8011C70.6727 79.8011 66.5818 79.0814 63.0969 77.642C59.631 76.2027 56.9227 74.072 54.9719 71.25C53.0401 68.4091 52.0268 64.8958 51.9321 60.7102H63.8355C63.9681 62.661 64.5268 64.2898 65.5117 65.5966C66.5155 66.8845 67.8507 67.8599 69.5174 68.5227C71.203 69.1667 73.1064 69.4886 75.2276 69.4886C77.3109 69.4886 79.1196 69.1856 80.6537 68.5795C82.2068 67.9735 83.4094 67.1307 84.2617 66.0511C85.114 64.9716 85.5401 63.7311 85.5401 62.3295C85.5401 61.0227 85.1518 59.9242 84.3753 59.0341C83.6177 58.1439 82.5003 57.3864 81.023 56.7614C79.5647 56.1364 77.7749 55.5682 75.6537 55.0568L69.3185 53.4659C64.4132 52.2727 60.5401 50.4072 57.6992 47.8693C54.8583 45.3314 53.4473 41.9129 53.4662 37.6136C53.4473 34.0909 54.3848 31.0133 56.2787 28.3807C58.1916 25.7481 60.8147 23.6932 64.148 22.2159C67.4814 20.7386 71.2693 20 75.5117 20C79.8299 20 83.5988 20.7386 86.8185 22.2159C90.0571 23.6932 92.5761 25.7481 94.3753 28.3807C96.1746 31.0133 97.1026 34.0625 97.1594 37.5284H85.3696Z" fill="#110C1A"/>
</svg>
