<svg width="100" height="108" viewBox="0 0 100 108" fill="none" xmlns="http://www.w3.org/2000/svg">
<path fill-rule="evenodd" clip-rule="evenodd" d="M32.2727 8.75001C32.2727 3.91752 36.1902 0 41.0227 0H85.5682C90.4007 0 94.3182 3.91751 94.3182 8.75V71.4773C94.3182 76.3098 90.4007 80.2273 85.5682 80.2273H41.0227C36.1902 80.2273 32.2727 76.3098 32.2727 71.4773V8.75001ZM41.0227 7.5C40.3324 7.5 39.7727 8.05964 39.7727 8.75001V71.4773C39.7727 72.1676 40.3324 72.7273 41.0227 72.7273H85.5682C86.2585 72.7273 86.8182 72.1676 86.8182 71.4773V8.75C86.8182 8.05965 86.2585 7.5 85.5682 7.5H41.0227Z" fill="#00FFC0"/>
<path fill-rule="evenodd" clip-rule="evenodd" d="M13.75 34.7727C13.0597 34.7727 12.5 35.3324 12.5 36.0227V98.75C12.5 99.4404 13.0596 100 13.75 100H58.2955C58.9858 100 59.5455 99.4404 59.5455 98.75V73.75H67.0455V98.75C67.0455 103.582 63.1279 107.5 58.2955 107.5H13.75C8.91751 107.5 5 103.582 5 98.75V36.0227C5 31.1902 8.9175 27.2727 13.75 27.2727H36.0227V34.7727H13.75Z" fill="#00FFC0"/>
<path fill-rule="evenodd" clip-rule="evenodd" d="M72.3864 0C74.4574 0 76.1364 1.67893 76.1364 3.75V16.9318C76.1364 17.6222 76.696 18.1818 77.3864 18.1818H90.5682C92.6392 18.1818 94.3182 19.8608 94.3182 21.9318C94.3182 24.0029 92.6392 25.6818 90.5682 25.6818H77.3864C72.5539 25.6818 68.6364 21.7643 68.6364 16.9318V3.75C68.6364 1.67893 70.3153 0 72.3864 0Z" fill="#00FFC0"/>
</svg>
