<svg width="108" height="108" viewBox="0 0 108 108" fill="none" xmlns="http://www.w3.org/2000/svg">
<path fill-rule="evenodd" clip-rule="evenodd" d="M48.8259 72.4919C38.9946 75.058 30.1907 84.1201 25.0955 92.1268C23.9836 93.874 21.6658 94.3891 19.9185 93.2772C18.1713 92.1653 17.6562 89.8475 18.7681 88.1002C24.279 79.4402 34.4145 68.5023 46.9317 65.235C53.3475 63.5604 60.3205 63.9301 67.336 67.5651C74.2695 71.1577 80.9723 77.7951 87.26 88.1698C88.3335 89.941 87.7678 92.247 85.9966 93.3205C84.2255 94.3939 81.9195 93.8283 80.846 92.0571C75.0125 82.4318 69.2153 76.9859 63.8856 74.2243C58.6378 71.5052 53.5843 71.2499 48.8259 72.4919Z" fill="#110C1A"/>
<path fill-rule="evenodd" clip-rule="evenodd" d="M53.75 7.5C28.2068 7.5 7.5 28.2068 7.5 53.75C7.5 79.2932 28.2068 100 53.75 100C79.2932 100 100 79.2932 100 53.75C100 28.2068 79.2932 7.5 53.75 7.5ZM0 53.75C0 24.0647 24.0647 0 53.75 0C83.4353 0 107.5 24.0647 107.5 53.75C107.5 83.4353 83.4353 107.5 53.75 107.5C24.0647 107.5 0 83.4353 0 53.75Z" fill="#110C1A"/>
<path fill-rule="evenodd" clip-rule="evenodd" d="M53.75 28.7121C44.9427 28.7121 37.803 35.8518 37.803 44.6591C37.803 53.4664 44.9427 60.6061 53.75 60.6061C62.5573 60.6061 69.697 53.4664 69.697 44.6591C69.697 35.8518 62.5573 28.7121 53.75 28.7121ZM30.303 44.6591C30.303 31.7097 40.8006 21.2121 53.75 21.2121C66.6994 21.2121 77.197 31.7097 77.197 44.6591C77.197 57.6085 66.6994 68.1061 53.75 68.1061C40.8006 68.1061 30.303 57.6085 30.303 44.6591Z" fill="#110C1A"/>
</svg>
