<svg width="100" height="100" viewBox="0 0 100 100" fill="none" xmlns="http://www.w3.org/2000/svg">
<path fill-rule="evenodd" clip-rule="evenodd" d="M69.2178 47.4998C70.5985 47.4998 71.7178 48.6191 71.7178 49.9998C71.7178 52.8549 70.564 55.1099 68.7476 56.7735C67.0115 58.3636 64.7488 59.3496 62.5143 59.9991C58.552 61.1508 53.926 61.4378 50.7322 61.6359C50.3486 61.6597 49.9858 61.6822 49.6472 61.7048L49.5641 61.7103H49.4809C47.8958 61.7103 46.1889 61.6333 44.5452 61.5591C43.7472 61.523 42.9641 61.4877 42.2171 61.4621C39.8324 61.3806 37.6942 61.3906 35.893 61.6789C34.083 61.9686 32.903 62.4963 32.1751 63.2126C31.5124 63.8648 30.9284 64.9659 30.9283 67.1051C30.9282 68.4859 29.8089 69.6051 28.4282 69.605C27.0474 69.605 25.9282 68.4857 25.9283 67.1049C25.9284 63.981 26.8238 61.4637 28.6681 59.6488C30.4472 57.898 32.802 57.1099 35.1028 56.7417C37.4125 56.3721 39.9611 56.3821 42.3879 56.4651C43.2589 56.4948 44.1045 56.5332 44.9312 56.5708C46.4728 56.6408 47.9483 56.7078 49.399 56.7102C49.7319 56.6882 50.0756 56.6665 50.4283 56.6442C53.6916 56.438 57.7304 56.1827 61.1187 55.1978C62.996 54.6522 64.4339 53.9441 65.3705 53.0863C66.2269 52.302 66.7178 51.3552 66.7178 49.9998C66.7178 48.6191 67.8371 47.4998 69.2178 47.4998Z" fill="#110C1A"/>
<path fill-rule="evenodd" clip-rule="evenodd" d="M27.1054 29.0787C28.4861 29.0787 29.6054 30.198 29.6054 31.5787V68.4208C29.6054 69.8015 28.4861 70.9208 27.1054 70.9208C25.7247 70.9208 24.6054 69.8015 24.6054 68.4208V31.5787C24.6054 30.198 25.7247 29.0787 27.1054 29.0787Z" fill="#110C1A"/>
<path fill-rule="evenodd" clip-rule="evenodd" d="M27.1053 29.2105C33.7908 29.2105 39.2105 23.7908 39.2105 17.1053C39.2105 10.4197 33.7908 5 27.1053 5C20.4197 5 15 10.4197 15 17.1053C15 23.7908 20.4197 29.2105 27.1053 29.2105ZM27.1053 34.2105C36.5522 34.2105 44.2105 26.5522 44.2105 17.1053C44.2105 7.65828 36.5522 0 27.1053 0C17.6583 0 10 7.65828 10 17.1053C10 26.5522 17.6583 34.2105 27.1053 34.2105Z" fill="#110C1A"/>
<path fill-rule="evenodd" clip-rule="evenodd" d="M69.2102 47.632C75.8958 47.632 81.3155 42.2122 81.3155 35.5267C81.3155 28.8412 75.8958 23.4214 69.2102 23.4214C62.5247 23.4214 57.105 28.8412 57.105 35.5267C57.105 42.2122 62.5247 47.632 69.2102 47.632ZM69.2102 52.6319C78.6572 52.6319 86.3155 44.9737 86.3155 35.5267C86.3155 26.0797 78.6572 18.4214 69.2102 18.4214C59.7632 18.4214 52.105 26.0797 52.105 35.5267C52.105 44.9737 59.7632 52.6319 69.2102 52.6319Z" fill="#110C1A"/>
<path fill-rule="evenodd" clip-rule="evenodd" d="M27.1053 95C33.7908 95 39.2105 89.5803 39.2105 82.8948C39.2105 76.2092 33.7908 70.7895 27.1053 70.7895C20.4197 70.7895 15 76.2092 15 82.8948C15 89.5803 20.4197 95 27.1053 95ZM27.1053 100C36.5522 100 44.2105 92.3417 44.2105 82.8948C44.2105 73.4478 36.5522 65.7895 27.1053 65.7895C17.6583 65.7895 10 73.4478 10 82.8948C10 92.3417 17.6583 100 27.1053 100Z" fill="#110C1A"/>
</svg>
