<svg width="100" height="100" viewBox="0 0 100 100" fill="none" xmlns="http://www.w3.org/2000/svg">
<path d="M0 30.9375V20.7955H47.7841V30.9375H29.9716V78.9773H17.8125V30.9375H0Z" fill="#110C1A"/>
<path d="M87.2159 37.5284C86.9886 35.2367 86.0133 33.4564 84.2898 32.1875C82.5663 30.9186 80.2273 30.2841 77.2727 30.2841C75.2652 30.2841 73.5701 30.5682 72.1875 31.1364C70.8049 31.6856 69.7443 32.4527 69.0057 33.4375C68.286 34.4223 67.9261 35.5398 67.9261 36.7898C67.8883 37.8314 68.1061 38.7405 68.5795 39.517C69.072 40.2936 69.7443 40.9659 70.5966 41.5341C71.4489 42.0833 72.4337 42.5663 73.5511 42.983C74.6686 43.3807 75.8617 43.7216 77.1307 44.0057L82.358 45.2557C84.8958 45.8239 87.2254 46.5814 89.3466 47.5284C91.4678 48.4754 93.3049 49.6402 94.858 51.0227C96.411 52.4053 97.6136 54.0341 98.4659 55.9091C99.3371 57.7841 99.7822 59.9337 99.8011 62.358C99.7822 65.9186 98.8731 69.0057 97.0739 71.6193C95.2936 74.214 92.7178 76.2311 89.3466 77.6705C85.9943 79.0909 81.9508 79.8011 77.2159 79.8011C72.5189 79.8011 68.428 79.0814 64.9432 77.642C61.4773 76.2027 58.7689 74.072 56.8182 71.25C54.8864 68.4091 53.8731 64.8958 53.7784 60.7102H65.6818C65.8144 62.661 66.3731 64.2898 67.358 65.5966C68.3617 66.8845 69.697 67.8599 71.3636 68.5227C73.0492 69.1667 74.9526 69.4886 77.0739 69.4886C79.1572 69.4886 80.9659 69.1856 82.5 68.5795C84.053 67.9735 85.2557 67.1307 86.108 66.0511C86.9602 64.9716 87.3864 63.7311 87.3864 62.3295C87.3864 61.0227 86.9981 59.9242 86.2216 59.0341C85.464 58.1439 84.3466 57.3864 82.8693 56.7614C81.411 56.1364 79.6212 55.5682 77.5 55.0568L71.1648 53.4659C66.2595 52.2727 62.3864 50.4072 59.5455 47.8693C56.7045 45.3314 55.2936 41.9129 55.3125 37.6136C55.2936 34.0909 56.2311 31.0133 58.125 28.3807C60.0379 25.7481 62.661 23.6932 65.9943 22.2159C69.3277 20.7386 73.1155 20 77.358 20C81.6761 20 85.4451 20.7386 88.6648 22.2159C91.9034 23.6932 94.4223 25.7481 96.2216 28.3807C98.0208 31.0133 98.9489 34.0625 99.0057 37.5284H87.2159Z" fill="#110C1A"/>
</svg>
