<svg width="110" height="110" viewBox="0 0 110 110" fill="none" xmlns="http://www.w3.org/2000/svg">
<path fill-rule="evenodd" clip-rule="evenodd" d="M55 0C57.7614 0 60 2.23858 60 5V105C60 107.761 57.7614 110 55 110C52.2386 110 50 107.761 50 105V5C50 2.23858 52.2386 0 55 0Z" fill="#B4A4CE"/>
<path fill-rule="evenodd" clip-rule="evenodd" d="M110 55C110 57.7614 107.761 60 105 60L5 60C2.23858 60 -1.20706e-07 57.7614 0 55C1.20706e-07 52.2386 2.23858 50 5 50L105 50C107.761 50 110 52.2386 110 55Z" fill="#B4A4CE"/>
</svg>
