<svg width="20" height="20" viewBox="0 0 100 100" fill="none" xmlns="http://www.w3.org/2000/svg">
<g clip-path="url(#clip0_76_294)">
<path d="M50 70.3125C47.4121 70.3125 45.4883 72.4102 45.4883 75C45.4883 77.5879 47.5879 79.6875 50 79.6875C52.5879 79.6875 54.5117 77.5879 54.5117 75C54.6875 72.4023 52.5977 70.3125 50 70.3125ZM50 62.5C51.7271 62.5 52.9492 61.1023 52.9492 59.375V31.25C52.9492 29.5227 51.5518 28.125 50 28.125C48.4482 28.125 46.875 29.5312 46.875 31.25V59.375C46.875 61.0938 48.2812 62.5 50 62.5ZM98.4961 77.5977L59.4727 11.5977C57.5 8.25586 53.9453 6.25586 50 6.25C46.0547 6.25 42.5195 8.24609 40.5273 11.5938L1.48437 77.6094C-0.478521 80.9238 -0.507818 84.9023 1.40199 88.2539C3.37695 91.6992 6.94335 93.75 10.957 93.75H89.0625C93.0684 93.75 96.6309 91.6934 98.5957 88.248C100.508 84.9023 100.469 80.918 98.4961 77.5977ZM92.9883 84.9805C92.3242 86.6211 90.7812 87.5 88.8867 87.5H10.957C9.21757 87.5 7.67968 86.6242 6.83984 85.1562C6.04335 83.7586 6.05566 82.168 6.87035 80.7891L45.918 14.7773C46.7578 13.3516 48.2812 12.5 50 12.5C50 12.5 49.997 12.5 50 12.5C51.7119 12.503 53.2344 13.3514 54.0742 14.7734L93.1172 80.7891C93.7695 82.168 93.9648 83.75 92.9883 84.9805Z" fill="#00DD79"/>
</g>
<defs>
<clipPath id="clip0_76_294">
<rect width="100" height="100" fill="white"/>
</clipPath>
</defs>
</svg>
