<svg width="100" height="100" viewBox="0 0 100 100" fill="none" xmlns="http://www.w3.org/2000/svg">
<path fill-rule="evenodd" clip-rule="evenodd" d="M43.75 13.5209V40.4883H36.25V11.26C36.25 6.3452 41.6612 3.35342 45.8236 5.96697L92.505 35.2786C96.3233 37.6761 96.4242 43.2047 92.6959 45.7399L64.6087 64.8393L60.3913 58.6373L86.8972 40.6133L43.75 13.5209Z" fill="#006E6E"/>
<path fill-rule="evenodd" clip-rule="evenodd" d="M25.1738 60.4883H42.3262C40.0529 58.127 37.0177 56.7383 33.75 56.7383C30.4823 56.7383 27.4471 58.127 25.1738 60.4883ZM46.0441 67.9883C46.1791 68.7969 46.25 69.6322 46.25 70.4883C46.25 71.1717 46.2048 71.8414 46.1181 72.4945C45.7043 75.6099 44.3428 78.3593 42.4006 80.4089C40.1177 82.8181 37.0638 84.2383 33.75 84.2383C30.4362 84.2383 27.3823 82.8181 25.0994 80.4089C23.1572 78.3593 21.7957 75.6099 21.3819 72.4945C21.2952 71.8414 21.25 71.1717 21.25 70.4883C21.25 69.6322 21.3209 68.7969 21.4559 67.9883H46.0441ZM51.7233 61.1556C51.9971 61.7501 52.2454 62.3599 52.4668 62.9833C53.1658 64.9516 53.5964 67.0542 53.7159 69.2383H57.5C59.5711 69.2383 61.25 70.9172 61.25 72.9883C61.25 75.0594 59.5711 76.7383 57.5 76.7383H52.8706C52.2508 78.8823 51.3193 80.8872 50.1279 82.6903L55.1517 87.714C56.6161 89.1785 56.6161 91.5528 55.1517 93.0173C53.6872 94.4818 51.3128 94.4818 49.8484 93.0173L44.9377 88.1066C41.7641 90.3844 37.9175 91.7383 33.75 91.7383C29.5825 91.7383 25.7359 90.3844 22.5623 88.1066L17.6516 93.0173C16.1872 94.4818 13.8128 94.4818 12.3483 93.0173C10.8839 91.5528 10.8839 89.1785 12.3483 87.714L17.3721 82.6903C16.1807 80.8872 15.2492 78.8823 14.6294 76.7383H8.75C6.67893 76.7383 5 75.0594 5 72.9883C5 70.9172 6.67893 69.2383 8.75 69.2383H13.7841C13.9036 67.0542 14.3342 64.9516 15.0332 62.9833C15.1875 62.5489 15.3549 62.121 15.5348 61.7003L9.13686 57.3362C7.42592 56.1692 6.98502 53.8361 8.15208 52.1251C9.31913 50.4142 11.6522 49.9733 13.3631 51.1404L19.6427 55.4237C23.2242 51.6387 28.1916 49.2383 33.75 49.2383C39.0547 49.2383 43.821 51.4246 47.3582 54.9141L51.9357 50.3366C53.4001 48.8722 55.7745 48.8722 57.239 50.3366C58.7034 51.8011 58.7034 54.1755 57.239 55.6399L51.7233 61.1556Z" fill="#006E6E"/>
</svg>
