<svg width="100" height="117" viewBox="0 0 100 117" fill="none" xmlns="http://www.w3.org/2000/svg">
<g clip-path="url(#clip0_41_251)">
<path d="M84.308 76.8448L92.6004 55.7805C93.5268 53.3921 91.808 50.8064 89.0848 50.8064H76.2545C77.7902 47.4496 78.5714 43.7752 78.5714 39.9194C78.5714 38.9856 78.3848 38.0919 78.2998 37.1794C87.2098 35.1789 92.8571 32.2757 92.8571 29.0323C92.8571 25.3851 85.7701 22.1643 74.9308 20.1888C72.2768 10.2407 68.058 0 61.9196 0C59.6027 0 57.5402 1.02067 55.808 2.38155C52.404 5.07611 47.6049 5.07611 44.2009 2.38155C42.4777 1.02067 40.4241 0 38.1027 0C31.9643 0 27.7679 10.2429 25.1116 20.182C14.2478 22.1552 7.14286 25.3805 7.14286 29.0323C7.14286 32.2848 12.7924 35.1857 21.7009 37.1794C21.6161 38.0822 21.4286 38.9894 21.4286 39.9194C21.4286 43.7752 22.2031 47.4496 23.5491 50.8064H10.7187C8.19196 50.8064 6.46429 53.3921 7.40179 55.7737L15.6942 76.8379C6.22098 84.0121 0 95.3528 0 108.259C0 112.613 3.46429 116.129 7.73661 116.129H92.2545C96.5402 116.129 100 112.613 100 108.259C100 95.3528 93.7723 84.0121 84.308 76.8448ZM39.2857 108.667L28.5714 65.3226L42.8571 72.5806L46.4286 79.8387L39.2857 108.667ZM60.5134 108.667L53.5714 79.8387L57.1429 72.5806L71.4286 65.3226L60.5134 108.667ZM71.4286 42.1875C71.4286 46.9506 67.5893 50.8064 62.8571 50.8064H60.1049C56.4308 50.8064 53.3437 48.4498 52.1518 45.1384C51.808 44.2061 50.9821 43.5484 50 43.5484C49.0179 43.5484 48.192 44.2061 47.8571 45.1361C46.6518 48.4476 43.5714 50.8064 39.9107 50.8064H37.1585C32.4107 50.8064 28.5714 46.9506 28.5714 42.1875V38.4451C34.8884 39.375 41.9866 39.9194 50 39.9194C58.0134 39.9194 65.1205 39.3789 71.4286 38.4512V42.1875Z" fill="#B4A4CE"/>
</g>
<defs>
<clipPath id="clip0_41_251">
<rect width="100" height="116.129" fill="white"/>
</clipPath>
</defs>
</svg>
