<svg width="100" height="117" viewBox="0 0 100 117" fill="none" xmlns="http://www.w3.org/2000/svg">
<g clip-path="url(#clip0_41_249)">
<path d="M88.8616 77.8881L86.4978 75.4861L96.0603 56.0504C96.6114 54.927 96.5556 53.5917 95.9068 52.5212C95.2455 51.4642 94.0848 50.8064 92.8571 50.8064H77.558C78.1549 48.4725 78.5701 46.0683 78.5701 43.5484C78.5701 41.5424 76.973 39.9194 75.1996 39.9194C73.4261 39.9194 71.4286 41.5524 71.4286 43.5484C71.4286 55.5559 61.817 65.3226 50 65.3226C38.183 65.3226 28.5714 55.5469 28.5714 43.5484C28.5714 41.5424 26.9741 39.9194 25 39.9194C23.0259 39.9194 21.4286 41.5524 21.4286 43.5711C21.4286 46.0887 21.8415 48.4703 22.433 50.8064H7.14286C5.90848 50.8064 4.7567 51.4642 4.10268 52.5302C3.45402 53.6006 3.39821 54.9367 3.94922 56.0595L13.5117 75.4952L11.1479 77.8972C3.96205 85.1915 0 94.9219 0 105.242C0 111.253 4.8058 116.129 10.7143 116.129H39.2857C40.4087 116.129 41.4621 115.594 42.1384 114.687C42.815 113.776 43.0243 112.599 42.7174 111.505L35.5746 86.1013C35.0375 84.1734 33.0634 83.0597 31.1594 83.6063C29.2621 84.1593 28.1661 86.1693 28.7107 88.0927L34.5536 108.871H10.7143C8.74777 108.871 7.14286 107.238 7.14286 105.242C7.14286 96.8498 10.3594 88.9612 16.1964 83.0277L20.3817 78.7749C21.4699 77.6692 21.742 75.9829 21.0513 74.5857L12.9196 58.0645H25C25.1286 58.0645 25.2375 58.0034 25.3627 57.9901C30.3125 66.6608 39.442 72.5806 49.7991 72.5806C60.1563 72.5806 69.4911 66.6653 74.442 57.9897C74.7545 57.9965 74.8661 58.0645 75 58.0645H87.0826L78.9487 74.5857C78.258 75.982 78.5301 77.6681 79.6183 78.7749L83.8036 83.0277C89.6429 88.9566 92.8571 96.8498 92.8571 105.242C92.8571 107.244 91.2527 108.871 89.2857 108.871H65.4464L71.2857 88.0925C71.8299 86.1682 70.7346 84.1595 68.8371 83.6061C66.9118 83.0567 64.9576 84.1731 64.4219 86.1011L57.279 111.504C56.9721 112.599 57.1814 113.777 57.858 114.686C58.5491 115.585 59.3973 116.129 60.7143 116.129H89.2857C95.1942 116.129 100 111.246 100 105.242C100 94.9219 96.0491 85.1915 88.8616 77.8881ZM50 36.2903C80.6027 36.2903 91.3616 25.6981 91.808 25.2467C93.1893 23.8432 93.1893 21.5859 91.822 20.1615C90.4548 18.744 88.2081 18.7192 86.7863 20.0836C86.7335 20.135 83.4849 23.1365 75.4738 25.6496C72.8348 13.2755 68.4821 0 61.8527 0C59.8089 0 57.7589 0.900227 55.75 2.68322C52.4152 5.65675 47.567 5.64541 44.2478 2.67258C42.2545 0.900227 40.1562 0 38.1027 0C31.5625 0 27.2098 13.28 24.5313 25.6527C16.5982 23.1804 13.3326 20.2024 13.2121 20.0867C11.8239 18.6938 9.57812 18.7081 8.18973 20.115C6.79464 21.5326 6.79464 23.8303 8.18973 25.2456C8.63616 25.6981 19.4063 36.2903 50 36.2903ZM38.5937 7.44178C38.817 7.56583 39.1308 7.77497 39.5286 8.12926C45.5821 13.5524 54.3924 13.5456 60.4482 8.14343C60.8319 7.80321 61.1388 7.59409 61.3621 7.46299C62.4462 8.7073 65.5295 13.4033 68.5228 27.3841C63.5714 28.3518 57.4777 29.0323 50 29.0323C42.5446 29.0323 36.4509 28.3518 31.4732 27.3765C34.5536 13.1167 37.567 8.60081 38.5937 7.44178ZM60.7143 83.4677C60.7143 81.4618 59.117 79.8387 57.1429 79.8387H42.8571C40.883 79.8387 39.2857 81.4618 39.2857 83.4677C39.2857 85.4737 40.8929 87.0968 42.8571 87.0968H46.4286V112.5C46.4286 114.506 48.0259 116.129 50 116.129C51.9741 116.129 53.5714 114.506 53.5714 112.5V87.0968H57.1429C59.1071 87.0968 60.7143 85.4637 60.7143 83.4677Z" fill="#B4A4CE"/>
</g>
<defs>
<clipPath id="clip0_41_249">
<rect width="100" height="116.129" fill="white"/>
</clipPath>
</defs>
</svg>
