<svg width="100" height="100" viewBox="0 0 100 100" fill="none" xmlns="http://www.w3.org/2000/svg">
<path fill-rule="evenodd" clip-rule="evenodd" d="M45.1517 56.0984C46.6161 57.5628 46.6161 59.9372 45.1517 61.4016L13.9017 92.6517C12.4372 94.1161 10.0628 94.1161 8.59835 92.6517C7.13388 91.1872 7.13388 88.8128 8.59835 87.3483L39.8483 56.0984C41.3128 54.6339 43.6872 54.6339 45.1517 56.0984Z" fill="#006E6E"/>
<path fill-rule="evenodd" clip-rule="evenodd" d="M60 12.5C46.8832 12.5 36.25 23.1332 36.25 36.25C36.25 49.3668 46.8832 60 60 60C73.1168 60 83.75 49.3668 83.75 36.25C83.75 23.1332 73.1168 12.5 60 12.5ZM28.75 36.25C28.75 18.9911 42.7411 5 60 5C77.2589 5 91.25 18.9911 91.25 36.25C91.25 53.5089 77.2589 67.5 60 67.5C42.7411 67.5 28.75 53.5089 28.75 36.25Z" fill="#006E6E"/>
</svg>
